<svg xmlns="http://www.w3.org/2000/svg" width="99" height="87.834" viewBox="0 0 99 87.834">
  <g id="save-money" transform="translate(-0.36 -106.492)">
    <path id="Path_1679" data-name="Path 1679" d="M194.063,174.458a1.755,1.755,0,0,0-.632-.022,4.19,4.19,0,0,1-3.706-4.155,1.843,1.843,0,1,0-3.686,0,7.885,7.885,0,0,0,5.8,7.592v1.843a1.843,1.843,0,0,0,3.686,0v-1.732a7.871,7.871,0,0,0-1.613-15.574,4.185,4.185,0,1,1,4.185-4.185,1.843,1.843,0,0,0,3.686,0,7.885,7.885,0,0,0-6.259-7.7v-1.678a1.843,1.843,0,0,0-3.686,0v1.79A7.87,7.87,0,0,0,193.91,166.1a4.182,4.182,0,0,1,.153,8.362Zm0,0" transform="translate(-142.898 -31.175)" fill="#15d4de"/>
    <path id="Path_1680" data-name="Path 1680" d="M104.195,133.22a26.728,26.728,0,1,0,26.728-26.728A26.728,26.728,0,0,0,104.195,133.22Zm26.728-23.042a23.042,23.042,0,1,1-23.042,23.042A23.041,23.041,0,0,1,130.923,110.178Zm0,0" transform="translate(-79.912)" fill="#15d4de"/>
    <path id="Path_1681" data-name="Path 1681" d="M86.825,333.7l-14.439,6.822a11.76,11.76,0,0,0-10.026-6.187l-13.329-.366a14.077,14.077,0,0,1-6.058-1.564l-1.356-.7a23.923,23.923,0,0,0-22.159.023l.085-3.073a1.843,1.843,0,0,0-1.792-1.894l-14.616-.4a1.842,1.842,0,0,0-1.893,1.792L.36,360.222a1.843,1.843,0,0,0,1.792,1.894l14.616.4h.05a1.843,1.843,0,0,0,1.843-1.793l.042-1.534,3.8-2.033a6.513,6.513,0,0,1,4.861-.532l22.674,6.364c.04.012.079.021.12.03a24.273,24.273,0,0,0,4.983.514,24.592,24.592,0,0,0,10.273-2.242,1.713,1.713,0,0,0,.229-.126L98.517,339.9a1.844,1.844,0,0,0,.6-2.455,9.311,9.311,0,0,0-12.3-3.746ZM4.1,358.482l.781-28.389,10.93.3-.781,28.39ZM63.752,358a20.9,20.9,0,0,1-12.78,1.426l-22.613-6.348a10.192,10.192,0,0,0-7.6.831l-1.94,1.04.519-18.876a20.261,20.261,0,0,1,20.583-1.1l1.356.7a17.8,17.8,0,0,0,7.652,1.976l13.33.366a8.084,8.084,0,0,1,7.683,6.442l-19.855-.548a1.843,1.843,0,1,0-.1,3.685l21.911.6h.051a1.843,1.843,0,0,0,1.841-1.793,11.7,11.7,0,0,0-.178-2.391l14.809-7,.043-.021a5.632,5.632,0,0,1,6.368.892Zm0,0" transform="translate(0 -169.208)" fill="#15d4de"/>
  </g>
</svg>
