<svg xmlns="http://www.w3.org/2000/svg" width="108.021" height="79.3" viewBox="0 0 108.021 79.3">
  <g id="team" transform="translate(0 -68.066)">
    <g id="Group_57" data-name="Group 57" transform="translate(82.862 101.903)">
      <g id="Group_56" data-name="Group 56">
        <path id="Path_118" data-name="Path 118" d="M405.192,230.308c-3.676-1.838-10.567-1.859-10.859-1.859a1.582,1.582,0,1,0,0,3.165c1.778,0,6.942.274,9.444,1.525a1.582,1.582,0,1,0,1.415-2.831Z" transform="translate(-392.751 -228.449)" fill="#15d4de"/>
      </g>
    </g>
    <g id="Group_59" data-name="Group 59" transform="translate(0 68.066)">
      <g id="Group_58" data-name="Group 58">
        <path id="Path_119" data-name="Path 119" d="M103.192,126.291l-6.535-1.867a.663.663,0,0,1-.479-.635v-2.181a11.892,11.892,0,0,0,1.513-1.241,11.641,11.641,0,0,0,3.563-8.421v-3.01l.632-1.264a10.1,10.1,0,0,0,1.06-4.491V95.026a1.582,1.582,0,0,0-1.582-1.582H86.136a10.053,10.053,0,0,0-10.042,10.042v.094a8.393,8.393,0,0,0,.881,3.734l.81,1.621v2.584a12.346,12.346,0,0,0,5.076,9.982v2.286c0,.353,0,.5-1.307.872l-3.189.911-9.224-3.354a1.58,1.58,0,0,0-.431-1.211l-2.948-3.1v-5.2c.312-.257.619-.52.916-.8a18.571,18.571,0,0,0,5.851-13.5V94.258a18.291,18.291,0,0,0,1.692-7.692V69.648a1.582,1.582,0,0,0-1.582-1.582H48.955A15.134,15.134,0,0,0,33.838,83.183v3.384a18.291,18.291,0,0,0,1.692,7.692v3.572A19.335,19.335,0,0,0,42.3,112.588v5.321l-2.948,3.1a1.58,1.58,0,0,0-.431,1.211l-9.736,3.54a8.3,8.3,0,0,0-1.956,1.025l-1.529-.764c4.551-1.981,5.992-4.767,6.062-4.905a1.582,1.582,0,0,0,0-1.415c-1.141-2.282-1.279-6.463-1.39-9.823-.037-1.119-.072-2.175-.139-3.116-.539-7.59-6.309-13.313-13.421-13.313S3.927,99.167,3.388,106.757c-.067.941-.1,2-.139,3.117-.111,3.36-.249,7.541-1.39,9.823a1.582,1.582,0,0,0,0,1.415c.069.138,1.508,2.919,6.068,4.9L3.68,128.137A6.624,6.624,0,0,0,0,134.093v11.69a1.582,1.582,0,1,0,3.165,0v-11.69A3.475,3.475,0,0,1,5.1,130.968l5.288-2.644,1.839,1.748a6.655,6.655,0,0,0,9.173,0l1.839-1.748,1.724.862a8.332,8.332,0,0,0-1.273,4.418v12.179a1.582,1.582,0,0,0,3.165,0V133.6a5.2,5.2,0,0,1,3.413-4.873L40.529,125l4.273,6.41a3.262,3.262,0,0,0,2.4,1.442q.164.016.326.016a3.261,3.261,0,0,0,2.312-.959l2.607-2.607v16.483a1.582,1.582,0,1,0,3.165,0V129.3l2.607,2.607a3.26,3.26,0,0,0,2.312.959q.162,0,.326-.016a3.262,3.262,0,0,0,2.4-1.442L67.532,125,77.8,128.732A5.2,5.2,0,0,1,81.21,133.6v12.179a1.582,1.582,0,1,0,3.165,0V133.6a8.365,8.365,0,0,0-2.34-5.789l.391-.112a8.677,8.677,0,0,0,1.472-.532l4.04,4.04v14.571a1.582,1.582,0,1,0,3.165,0V131.212l4.012-4.012a3.765,3.765,0,0,0,.673.267l6.535,1.867a3.508,3.508,0,0,1,2.534,3.359v13.09a1.582,1.582,0,1,0,3.165,0v-13.09A6.687,6.687,0,0,0,103.192,126.291ZM10.151,123.5a11.376,11.376,0,0,1-5.078-3.26,17.442,17.442,0,0,0,.9-3.789,11.8,11.8,0,0,0,4.176,5.153Zm9.065,4.282a3.492,3.492,0,0,1-4.813,0l-1.472-1.4a3.274,3.274,0,0,0,.385-1.545v-1.687a11.767,11.767,0,0,0,6.987,0v1.685a3.274,3.274,0,0,0,.385,1.546Zm-2.406-7.264a8.579,8.579,0,0,1-8.569-8.569A1.573,1.573,0,0,0,6.4,110.386c0-.136.009-.272.014-.407.035-1.088.069-2.116.132-3a11.748,11.748,0,0,1,3.2-7.378,9.831,9.831,0,0,1,14.132,0,11.748,11.748,0,0,1,3.2,7.378c.062.881.1,1.909.132,3l.009.282A14.218,14.218,0,0,0,19.4,104.55a19.859,19.859,0,0,0-6.019-.954,1.582,1.582,0,0,0-1.1.483l-2.855,2.961a1.582,1.582,0,0,0,2.278,2.2l2.376-2.464c2.046.1,8.628.865,11.188,6.5A8.548,8.548,0,0,1,16.81,120.515Zm6.657,2.987v-1.887a11.7,11.7,0,0,0,4.178-5.158,17.42,17.42,0,0,0,.9,3.78A11.43,11.43,0,0,1,23.467,123.5ZM38.694,97.831V93.9a1.583,1.583,0,0,0-.157-.688A15.178,15.178,0,0,1,37,86.567V83.183A11.966,11.966,0,0,1,48.955,71.231h22.1V86.567a15.178,15.178,0,0,1-1.534,6.65,1.583,1.583,0,0,0-.157.688V98.41A15.191,15.191,0,0,1,64.517,109.6a15.751,15.751,0,0,1-1.215,1.029l-.027.02a15.215,15.215,0,0,1-10.268,3.063C44.981,113.194,38.694,106.217,38.694,97.831ZM47.6,129.67a.1.1,0,0,1-.088.031.1.1,0,0,1-.08-.048l-4.921-7.382,1.584-1.664,7.465,5.1Zm6.427-6.106-8.569-5.857v-2.954a17.816,17.816,0,0,0,7.34,2.119q.626.04,1.245.04a18.329,18.329,0,0,0,8.553-2.1v2.89Zm6.6,6.09a.1.1,0,0,1-.08.048.1.1,0,0,1-.088-.031L56.5,125.711l7.465-5.1,1.584,1.664Zm28.894-1.335-3.591-3.591a4.341,4.341,0,0,0,.1-.94v-.668a11.1,11.1,0,0,0,3.133.554c.122,0,.243.005.364.005a11.753,11.753,0,0,0,3.489-.528v.637a3.783,3.783,0,0,0,.114.922ZM95.487,118.1a8.5,8.5,0,0,1-6.232,2.415,8.858,8.858,0,0,1-8.3-8.99v-2.958a1.581,1.581,0,0,0-.167-.708l-.977-1.955a5.212,5.212,0,0,1-.547-2.319v-.094a6.885,6.885,0,0,1,6.877-6.877H99.781v6.572a6.914,6.914,0,0,1-.726,3.076l-.8,1.6a1.581,1.581,0,0,0-.167.708v3.384A8.5,8.5,0,0,1,95.487,118.1Z" transform="translate(0 -68.066)" fill="#15d4de"/>
      </g>
    </g>
    <g id="Group_61" data-name="Group 61" transform="translate(98.089 134.049)">
      <g id="Group_60" data-name="Group 60">
        <path id="Path_120" data-name="Path 120" d="M466.505,380.814a1.582,1.582,0,0,0-1.582,1.582v10.151a1.582,1.582,0,1,0,3.165,0V382.4A1.583,1.583,0,0,0,466.505,380.814Z" transform="translate(-464.923 -380.814)" fill="#15d4de"/>
      </g>
    </g>
    <g id="Group_63" data-name="Group 63" transform="translate(6.768 136.141)">
      <g id="Group_62" data-name="Group 62">
        <path id="Path_121" data-name="Path 121" d="M33.659,390.728a1.582,1.582,0,0,0-1.582,1.582v8.06a1.582,1.582,0,0,0,3.165,0v-8.06A1.582,1.582,0,0,0,33.659,390.728Z" transform="translate(-32.077 -390.728)" fill="#15d4de"/>
      </g>
    </g>
    <g id="Group_65" data-name="Group 65" transform="translate(40.605 82.441)">
      <g id="Group_64" data-name="Group 64">
        <path id="Path_122" data-name="Path 122" d="M218.848,140.9c-5.985-5.985-18.506-4.84-23.612-4.071a3.249,3.249,0,0,0-2.775,3.236v3.645a1.582,1.582,0,0,0,3.165,0v-3.646a.1.1,0,0,1,.083-.107,49.988,49.988,0,0,1,10.28-.5c4.934.328,8.508,1.567,10.623,3.682a1.582,1.582,0,0,0,2.238-2.238Z" transform="translate(-192.46 -136.203)" fill="#15d4de"/>
      </g>
    </g>
    <g id="Group_67" data-name="Group 67" transform="translate(33.838 137.433)">
      <g id="Group_66" data-name="Group 66">
        <path id="Path_123" data-name="Path 123" d="M161.966,396.853a1.582,1.582,0,0,0-1.582,1.582V405.2a1.582,1.582,0,0,0,3.165,0v-6.768A1.583,1.583,0,0,0,161.966,396.853Z" transform="translate(-160.384 -396.853)" fill="#15d4de"/>
      </g>
    </g>
    <g id="Group_69" data-name="Group 69" transform="translate(71.059 137.433)">
      <g id="Group_68" data-name="Group 68">
        <path id="Path_124" data-name="Path 124" d="M338.388,396.853a1.582,1.582,0,0,0-1.582,1.582V405.2a1.582,1.582,0,0,0,3.165,0v-6.768A1.583,1.583,0,0,0,338.388,396.853Z" transform="translate(-336.806 -396.853)" fill="#15d4de"/>
      </g>
    </g>
  </g>
</svg>
