<svg xmlns="http://www.w3.org/2000/svg" width="121.603" height="76" viewBox="0 0 121.603 76">
  <g id="hand-shake" transform="translate(0 -96.003)">
    <g id="Group_40" data-name="Group 40" transform="translate(17.728 101.384)">
      <g id="Group_39" data-name="Group 39" transform="translate(0 0)">
        <path id="Path_108" data-name="Path 108" d="M152.93,165.388c-2.386-4.976-10.924-11.882-19.173-18.555-4.6-3.719-8.948-7.235-11.72-10.007a2.533,2.533,0,0,0-2.65-.593c-1.707.618-2.761,1.094-3.592,1.464a8.378,8.378,0,0,1-3.4.932,2.533,2.533,0,0,0-1.854,1.11c-3.582,5.356-7.291,4.9-9.769,4.069-.79-.263-.932-.6-1.008-.927-.532-2.224,2.138-7.4,5.6-10.863,8.234-8.239,12.48-10.3,21.448-6.293,10.174,4.55,20.369,8.112,20.47,8.147a2.535,2.535,0,0,0,1.667-4.788c-.1-.035-10.093-3.527-20.065-7.99-11.618-5.194-17.992-1.773-27.1,7.337-3.466,3.466-8.173,10.478-6.957,15.621a6.267,6.267,0,0,0,4.352,4.565c5.741,1.9,10.98.081,14.881-5.1a12.79,12.79,0,0,0,3.805-1.206c.476-.213,1.034-.461,1.773-.76,2.9,2.721,6.81,5.888,10.929,9.216,7.448,6.024,15.895,12.855,17.795,16.807a2.969,2.969,0,0,1-.755,3.805c-1,.861-2.376,1.135-3.121.613a2.533,2.533,0,0,0-3.957,2.356c.172,1.611-1.3,2.533-1.941,2.853-1.621.821-3.314.679-3.947.091a2.533,2.533,0,0,0-4.251,1.616,4.814,4.814,0,0,1-2.989,3.881,2.671,2.671,0,0,1-2.908-.451,2.563,2.563,0,0,0-2.315-.588,2.53,2.53,0,0,0-1.778,1.6c-.1.253-.314.861-2.685.861a14.588,14.588,0,0,1-6.207-2.123c-1.778-1.17-12.931-9.49-22.562-17.556-1.353-1.14-3.694-3.582-5.761-5.741-1.834-1.915-3.511-3.653-4.373-4.383a2.535,2.535,0,0,0-3.273,3.871c.785.664,2.305,2.27,3.983,4.018,2.26,2.361,4.6,4.8,6.166,6.121,9.434,7.9,20.774,16.427,23.034,17.911a19.437,19.437,0,0,0,8.994,2.949,8.719,8.719,0,0,0,5.751-1.692,7.886,7.886,0,0,0,5.761-.061,9.98,9.98,0,0,0,5.275-4.869,9.8,9.8,0,0,0,6.359-.917,8.6,8.6,0,0,0,4.231-4.418,8.285,8.285,0,0,0,5.812-2.082A8.055,8.055,0,0,0,152.93,165.388Z" transform="translate(-74.642 -118.658)" fill="#15d4de"/>
      </g>
    </g>
    <g id="Group_42" data-name="Group 42" transform="translate(25.334 106.135)">
      <g id="Group_41" data-name="Group 41" transform="translate(0 0)">
        <path id="Path_109" data-name="Path 109" d="M132,138.663H109.2a2.533,2.533,0,1,0,0,5.067H132a2.533,2.533,0,1,0,0-5.067Z" transform="translate(-106.666 -138.663)" fill="#15d4de"/>
      </g>
    </g>
    <g id="Group_44" data-name="Group 44" transform="translate(91.395 141.599)">
      <g id="Group_43" data-name="Group 43" transform="translate(0 0)">
        <path id="Path_110" data-name="Path 110" d="M396.854,289.1a2.527,2.527,0,0,0-3.516-.689l-7.408,4.976a2.534,2.534,0,0,0,2.828,4.206l7.408-4.976A2.536,2.536,0,0,0,396.854,289.1Z" transform="translate(-384.811 -287.977)" fill="#15d4de"/>
      </g>
    </g>
    <g id="Group_46" data-name="Group 46" transform="translate(68.406 139.067)">
      <g id="Group_45" data-name="Group 45">
        <path id="Path_111" data-name="Path 111" d="M307.321,293.063c-1.814-1.429-9.926-9.733-14.942-14.962a2.534,2.534,0,0,0-3.658,3.506c1.3,1.358,12.789,13.331,15.459,15.439a2.523,2.523,0,0,0,1.566.542,2.56,2.56,0,0,0,2-.968A2.532,2.532,0,0,0,307.321,293.063Z" transform="translate(-288.016 -277.317)" fill="#15d4de"/>
      </g>
    </g>
    <g id="Group_48" data-name="Group 48" transform="translate(60.803 146.672)">
      <g id="Group_47" data-name="Group 47">
        <path id="Path_112" data-name="Path 112" d="M272.79,322.56c-3.035-2.427-10.66-10.529-12.383-12.4a2.535,2.535,0,0,0-3.734,3.43c.091.1,9.191,9.921,12.951,12.931a2.534,2.534,0,0,0,3.167-3.957Z" transform="translate(-256.005 -309.337)" fill="#15d4de"/>
      </g>
    </g>
    <g id="Group_50" data-name="Group 50" transform="translate(50.67 151.732)">
      <g id="Group_49" data-name="Group 49">
        <path id="Path_113" data-name="Path 113" d="M230.178,343.908c-3.613-3.045-11.005-10.914-12.449-12.459a2.535,2.535,0,0,0-3.7,3.461c2.077,2.224,9.151,9.723,12.885,12.875a2.535,2.535,0,1,0,3.268-3.876Z" transform="translate(-213.343 -330.644)" fill="#15d4de"/>
      </g>
    </g>
    <g id="Group_52" data-name="Group 52" transform="translate(0 96.003)">
      <g id="Group_51" data-name="Group 51">
        <path id="Path_114" data-name="Path 114" d="M29.61,101.763C25.268,97.649,7.9,96.316,2.685,96.007A2.531,2.531,0,0,0,0,98.535v45.6a2.534,2.534,0,0,0,2.533,2.533h15.2a2.531,2.531,0,0,0,2.407-1.748c.37-1.135,9.1-27.928,10.25-41.1A2.52,2.52,0,0,0,29.61,101.763ZM15.884,141.6H5.067V101.251c8.142.643,16.928,2.042,20.12,3.592C23.844,115.94,17.769,135.655,15.884,141.6Z" transform="translate(0 -96.003)" fill="#15d4de"/>
      </g>
    </g>
    <g id="Group_54" data-name="Group 54" transform="translate(86.226 101.069)">
      <g id="Group_53" data-name="Group 53" transform="translate(0 0)">
        <path id="Path_115" data-name="Path 115" d="M395.89,117.33c-19.892,0-30.928,5.092-31.389,5.3a2.521,2.521,0,0,0-1.353,1.576,2.555,2.555,0,0,0,.279,2.057c3.131,5.042,12.936,33.041,14.82,39.871A2.533,2.533,0,0,0,380.69,168h15.2a2.534,2.534,0,0,0,2.533-2.533v-45.6A2.531,2.531,0,0,0,395.89,117.33Zm-2.533,45.6H382.585c-2.4-7.823-9.5-28.222-13.452-36.653a82.515,82.515,0,0,1,24.224-3.851Z" transform="translate(-363.046 -117.33)" fill="#15d4de"/>
      </g>
    </g>
  </g>
</svg>
