<svg xmlns="http://www.w3.org/2000/svg" width="90.308" height="74" viewBox="0 0 90.308 74">
  <g id="cloud-computing" transform="translate(0 -46.228)">
    <g id="Group_468" data-name="Group 468" transform="translate(0 46.228)">
      <g id="Group_467" data-name="Group 467" transform="translate(0 0)">
        <path id="Path_1664" data-name="Path 1664" d="M71.605,71.14A25.25,25.25,0,0,0,21.644,66.3l-.242,0a21.4,21.4,0,1,0,0,42.8h7.855a1.926,1.926,0,0,0,0-3.852H21.4a17.55,17.55,0,1,1,0-35.1c.516,0,1.061.028,1.666.085a1.928,1.928,0,0,0,2.089-1.657,21.4,21.4,0,0,1,42.6,2.915c0,.425-.079,1.524-.079,1.524a1.926,1.926,0,0,0,2.114,2.052,15.36,15.36,0,0,1,1.536-.078,15.13,15.13,0,1,1,0,30.259H62.7a1.926,1.926,0,1,0,0,3.852h8.625a18.981,18.981,0,0,0,.279-37.96Z" transform="translate(0 -46.228)" fill="#15d4de"/>
      </g>
    </g>
    <g id="Group_470" data-name="Group 470" transform="translate(30.292 55.28)">
      <g id="Group_469" data-name="Group 469" transform="translate(0 0)">
        <path id="Path_1665" data-name="Path 1665" d="M187.793,97.548a16.245,16.245,0,0,0-16.036,14,1.926,1.926,0,1,0,3.817.521A12.379,12.379,0,0,1,187.793,101.4a1.926,1.926,0,0,0,0-3.852Z" transform="translate(-171.74 -97.548)" fill="#15d4de"/>
      </g>
    </g>
    <g id="Group_472" data-name="Group 472" transform="translate(36.211 88.807)">
      <g id="Group_471" data-name="Group 471">
        <path id="Path_1666" data-name="Path 1666" d="M224.346,309.262a1.926,1.926,0,0,0-2.719-.153l-4.633,4.138V289.554a1.926,1.926,0,0,0-3.852,0v23.693l-4.632-4.138a1.926,1.926,0,0,0-2.566,2.872l7.005,6.259a3.178,3.178,0,0,0,4.238,0l7.006-6.258A1.926,1.926,0,0,0,224.346,309.262Z" transform="translate(-205.3 -287.628)" fill="#15d4de"/>
      </g>
    </g>
  </g>
</svg>
