<svg xmlns="http://www.w3.org/2000/svg" width="19.934" height="30.717" viewBox="0 0 19.934 30.717">
  <g id="creative" transform="translate(-24.873 -8.603)">
    <g id="Group_462" data-name="Group 462" transform="translate(24.873 8.603)">
      <g id="Group_461" data-name="Group 461" transform="translate(0)">
        <path id="Path_1657" data-name="Path 1657" d="M113,85.12a10.01,10.01,0,0,0-10,10,11.385,11.385,0,0,0,4.728,9.081v7.224a.709.709,0,0,0,.05.241v.057a.711.711,0,0,0,.043.085l2.5,3.715a.709.709,0,0,0,.588.312h4.126a.709.709,0,0,0,.588-.312l2.5-3.715a.712.712,0,0,0,.043-.085v-.057a.709.709,0,0,0,.05-.241V104.2a11.385,11.385,0,0,0,4.728-9.081A10.01,10.01,0,0,0,113,85.12Zm1.687,29.32h-3.374l-1.545-2.3h6.458Zm-5.536-3.715v-1.879h7.7l.007,1.879Zm8.025-7.493v.021a.709.709,0,0,0-.319.6v3.6h-7.706v-3.644a.709.709,0,0,0-.319-.6,9.925,9.925,0,0,1-4.409-8.11,8.585,8.585,0,0,1,17.162,0A9.925,9.925,0,0,1,117.178,103.232Z" transform="translate(-103 -85.12)" fill="#15d4de"/>
      </g>
    </g>
    <g id="Group_464" data-name="Group 464" transform="translate(34.419 11.998)">
      <g id="Group_463" data-name="Group 463">
        <path id="Path_1658" data-name="Path 1658" d="M211.789,121.36a.709.709,0,0,0,0,1.418,5.345,5.345,0,0,1,5.338,5.338.709.709,0,0,0,1.418,0A6.763,6.763,0,0,0,211.789,121.36Z" transform="translate(-211.08 -121.36)" fill="#15d4de"/>
      </g>
    </g>
  </g>
</svg>
