<svg xmlns="http://www.w3.org/2000/svg" width="40" height="40" viewBox="0 0 40 40">
  <g id="Group_454" data-name="Group 454" transform="translate(-840 -844)">
    <g id="facebook-logo" transform="translate(840 844)">
      <path id="Facebook__x28_alt_x29_" d="M40,6.667A6.909,6.909,0,0,0,33.333,0H6.667A6.909,6.909,0,0,0,0,6.667V33.333A6.91,6.91,0,0,0,6.667,40H20V24.889H15.111V18.222H20v-2.6c0-4.48,3.364-8.514,7.5-8.514h5.389v6.667H27.5c-.59,0-1.278.716-1.278,1.788v2.656h6.667v6.667H26.222V40h7.111A6.909,6.909,0,0,0,40,33.333Z" transform="translate(0 0)" fill="#fff"/>
    </g>
  </g>
</svg>
