<svg xmlns="http://www.w3.org/2000/svg" width="40" height="40" viewBox="0 0 40 40">
  <g id="Group_453" data-name="Group 453" transform="translate(-288 -594)">
    <g id="twitter-logo" transform="translate(288 594)">
      <g id="Group_452" data-name="Group 452">
        <g id="Group_451" data-name="Group 451">
          <path id="Path_1655" data-name="Path 1655" d="M32.5,0H7.5A7.5,7.5,0,0,0,0,7.5v25A7.5,7.5,0,0,0,7.5,40h25A7.5,7.5,0,0,0,40,32.5V7.5A7.5,7.5,0,0,0,32.5,0ZM29.95,15.51l.015.638a14,14,0,0,1-21.558,11.8,10.126,10.126,0,0,0,1.175.07A9.881,9.881,0,0,0,15.7,25.907a4.932,4.932,0,0,1-4.6-3.42,5.138,5.138,0,0,0,.927.085,4.924,4.924,0,0,0,1.3-.17,4.929,4.929,0,0,1-3.95-4.827v-.062a4.917,4.917,0,0,0,2.23.618,4.932,4.932,0,0,1-1.525-6.572A13.975,13.975,0,0,0,20.227,16.7a4.928,4.928,0,0,1,8.393-4.49,9.971,9.971,0,0,0,3.128-1.2,4.937,4.937,0,0,1-2.165,2.725,9.871,9.871,0,0,0,2.828-.775A9.953,9.953,0,0,1,29.95,15.51Z" fill="#fff"/>
        </g>
      </g>
    </g>
  </g>
</svg>
