<svg id="web-programming" xmlns="http://www.w3.org/2000/svg" width="40" height="35.291" viewBox="0 0 40 35.291">
  <path id="Path_1667" data-name="Path 1667" d="M119.933,189.587a.658.658,0,0,1-.427-.158l-4.273-3.639a.661.661,0,0,1,0-1.006l4.273-3.639a.66.66,0,1,1,.856,1.005l-3.683,3.136,3.683,3.136a.661.661,0,0,1-.429,1.163Zm0,0" transform="translate(-104.151 -163.915)" fill="#15d4de"/>
  <path id="Path_1668" data-name="Path 1668" d="M250.368,189.587a.661.661,0,0,1-.429-1.163l3.683-3.136-3.683-3.136a.66.66,0,0,1,.856-1.005l4.273,3.639a.661.661,0,0,1,0,1.006L250.8,189.43A.658.658,0,0,1,250.368,189.587Zm0,0" transform="translate(-226.15 -163.914)" fill="#15d4de"/>
  <path id="Path_1669" data-name="Path 1669" d="M189.615,166.991a.67.67,0,0,1-.137-.014.661.661,0,0,1-.51-.782l2.663-12.645a.66.66,0,1,1,1.292.272l-2.663,12.645A.66.66,0,0,1,189.615,166.991Zm0,0" transform="translate(-171.128 -138.588)" fill="#15d4de"/>
  <path id="Path_1670" data-name="Path 1670" d="M35.566,35.291H4.434A4.439,4.439,0,0,1,0,30.857V4.434A4.439,4.439,0,0,1,4.434,0H35.566A4.439,4.439,0,0,1,40,4.434V30.857A4.439,4.439,0,0,1,35.566,35.291ZM4.434,1.321A3.117,3.117,0,0,0,1.321,4.434V30.857A3.117,3.117,0,0,0,4.434,33.97H35.566a3.117,3.117,0,0,0,3.113-3.113V4.434a3.117,3.117,0,0,0-3.113-3.113Zm0,0" fill="#15d4de"/>
  <path id="Path_1671" data-name="Path 1671" d="M39.34,99.411H.66a.66.66,0,0,1,0-1.321H39.34a.66.66,0,1,1,0,1.321Zm0,0" transform="translate(0 -88.836)" fill="#15d4de"/>
  <path id="Path_1672" data-name="Path 1672" d="M99.54,38.469a2.09,2.09,0,1,1,2.09-2.09A2.093,2.093,0,0,1,99.54,38.469Zm0-2.859a.769.769,0,1,0,.769.769A.77.77,0,0,0,99.54,35.61Zm0,0" transform="translate(-88.256 -31.054)" fill="#15d4de"/>
  <path id="Path_1673" data-name="Path 1673" d="M31.477,38.254a2.09,2.09,0,1,1,2.09-2.09A2.092,2.092,0,0,1,31.477,38.254Zm0-2.859a.769.769,0,1,0,.769.769A.77.77,0,0,0,31.477,35.4Zm0,0" transform="translate(-26.614 -30.86)" fill="#15d4de"/>
  <path id="Path_1674" data-name="Path 1674" d="M167.605,38.683a2.09,2.09,0,1,1,2.09-2.09A2.092,2.092,0,0,1,167.605,38.683Zm0-2.859a.769.769,0,1,0,.769.769A.77.77,0,0,0,167.605,35.824Zm0,0" transform="translate(-149.901 -31.249)" fill="#15d4de"/>
</svg>
